{
    "asset" : {
        "generator" : "Khronos glTF Blender I/O v1.6.16",
        "version" : "2.0"
    },
    "scene" : 0,
    "scenes" : [
        {
            "name" : "Scene",
            "nodes" : [
                16,
                17,
                18,
                19,
                20
            ]
        }
    ],
    "nodes" : [
        {
            "mesh" : 0,
            "name" : "Object_7"
        },
        {
            "children" : [
                0
            ],
            "name" : "Cylinder guard 2_1",
            "translation" : [
                -21.392812728881836,
                0.9856999516487122,
                -21.392812728881836
            ]
        },
        {
            "mesh" : 1,
            "name" : "Object_13"
        },
        {
            "children" : [
                2
            ],
            "name" : "Cylinder guard 3_4",
            "translation" : [
                -20.937646865844727,
                0.9856999516487122,
                21.241090774536133
            ]
        },
        {
            "mesh" : 2,
            "name" : "Object_11"
        },
        {
            "children" : [
                4
            ],
            "name" : "Cylinder guard 4_3",
            "translation" : [
                21.392812728881836,
                0.9856999516487122,
                21.241090774536133
            ]
        },
        {
            "mesh" : 3,
            "name" : "Object_9"
        },
        {
            "children" : [
                6
            ],
            "name" : "Cylinder guard_2",
            "translation" : [
                21.392812728881836,
                0.9856999516487122,
                -21.392812728881836
            ]
        },
        {
            "mesh" : 4,
            "name" : "Object_15"
        },
        {
            "mesh" : 5,
            "name" : "Object_16"
        },
        {
            "children" : [
                8,
                9
            ],
            "name" : "Cylinder sun_5",
            "rotation" : [
                0.3247174620628357,
                -0.41984349489212036,
                0.16395536065101624,
                0.8315100073814392
            ],
            "translation" : [
                0,
                15.269500732421875,
                0
            ]
        },
        {
            "mesh" : 6,
            "name" : "Object_4"
        },
        {
            "mesh" : 7,
            "name" : "Object_5"
        },
        {
            "children" : [
                11,
                12
            ],
            "name" : "Floor_0",
            "scale" : [
                22.624624252319336,
                22.624624252319336,
                22.624624252319336
            ]
        },
        {
            "children" : [
                1,
                3,
                5,
                7,
                10,
                13
            ],
            "name" : "GLTF_SceneRootNode",
            "rotation" : [
                0.7071068286895752,
                0,
                0,
                0.7071068286895752
            ]
        },
        {
            "children" : [
                14
            ],
            "name" : "root"
        },
        {
            "children" : [
                15
            ],
            "name" : "Sketchfab_model",
            "rotation" : [
                -0.7071068286895752,
                0,
                0,
                0.7071068286895752
            ]
        },
        {
            "name" : "Light.001",
            "rotation" : [
                0.16907575726509094,
                0.7558803558349609,
                -0.27217137813568115,
                0.570947527885437
            ],
            "translation" : [
                4.076245307922363,
                14.538692474365234,
                -0.9349048733711243
            ]
        },
        {
            "name" : "Camera.001",
            "rotation" : [
                0.483536034822464,
                0.33687159419059753,
                -0.20870360732078552,
                0.7804827094078064
            ],
            "translation" : [
                7.358891487121582,
                4.958309173583984,
                6.925790786743164
            ]
        },
        {
            "name" : "Light",
            "rotation" : [
                0.16907575726509094,
                0.7558803558349609,
                -0.27217137813568115,
                0.570947527885437
            ],
            "translation" : [
                4.076245307922363,
                15.79310417175293,
                -1.0054539442062378
            ]
        },
        {
            "name" : "Camera",
            "rotation" : [
                0.483536034822464,
                0.33687159419059753,
                -0.20870360732078552,
                0.7804827094078064
            ],
            "translation" : [
                7.358891487121582,
                4.958309173583984,
                6.925790786743164
            ]
        }
    ],
    "materials" : [
        {
            "doubleSided" : true,
            "emissiveFactor" : [
                0.5711249709129333,
                0.5711249709129333,
                0.02217390015721321
            ],
            "name" : "Cylinder_guard",
            "pbrMetallicRoughness" : {
                "baseColorFactor" : [
                    0.5711249709129333,
                    0.5711249709129333,
                    0.02217390015721321,
                    1
                ],
                "metallicFactor" : 0,
                "roughnessFactor" : 0.5
            }
        },
        {
            "doubleSided" : true,
            "emissiveFactor" : [
                1,
                1,
                1
            ],
            "name" : "Cylinder_sun",
            "pbrMetallicRoughness" : {
                "baseColorFactor" : [
                    0.800000011920929,
                    0.800000011920929,
                    0.800000011920929,
                    1
                ],
                "metallicFactor" : 0,
                "roughnessFactor" : 0.5
            }
        },
        {
            "doubleSided" : true,
            "emissiveFactor" : [
                1,
                1,
                1
            ],
            "name" : "Cylinder_sun_2",
            "pbrMetallicRoughness" : {
                "baseColorFactor" : [
                    0.10061100125312805,
                    0.10061100125312805,
                    0.10061100125312805,
                    1
                ],
                "metallicFactor" : 0,
                "roughnessFactor" : 0.9320389032363892
            }
        },
        {
            "doubleSided" : true,
            "name" : "Floor",
            "pbrMetallicRoughness" : {
                "baseColorFactor" : [
                    0.05438661575317383,
                    0.0800040140748024,
                    0.14517444372177124,
                    1
                ],
                "metallicFactor" : 0.8925619721412659,
                "roughnessFactor" : 0.512135922908783
            }
        },
        {
            "doubleSided" : true,
            "emissiveFactor" : [
                1,
                1,
                1
            ],
            "name" : "Floor-light",
            "pbrMetallicRoughness" : {
                "baseColorFactor" : [
                    0.800000011920929,
                    0.800000011920929,
                    0.800000011920929,
                    1
                ],
                "metallicFactor" : 0,
                "roughnessFactor" : 0.5
            }
        }
    ],
    "meshes" : [
        {
            "name" : "Object_2",
            "primitives" : [
                {
                    "attributes" : {
                        "POSITION" : 0,
                        "NORMAL" : 1,
                        "TEXCOORD_0" : 2
                    },
                    "indices" : 3,
                    "material" : 0
                }
            ]
        },
        {
            "name" : "Object_5",
            "primitives" : [
                {
                    "attributes" : {
                        "POSITION" : 4,
                        "NORMAL" : 5,
                        "TEXCOORD_0" : 6
                    },
                    "indices" : 3,
                    "material" : 0
                }
            ]
        },
        {
            "name" : "Object_4",
            "primitives" : [
                {
                    "attributes" : {
                        "POSITION" : 7,
                        "NORMAL" : 8,
                        "TEXCOORD_0" : 9
                    },
                    "indices" : 3,
                    "material" : 0
                }
            ]
        },
        {
            "name" : "Object_3",
            "primitives" : [
                {
                    "attributes" : {
                        "POSITION" : 10,
                        "NORMAL" : 11,
                        "TEXCOORD_0" : 12
                    },
                    "indices" : 3,
                    "material" : 0
                }
            ]
        },
        {
            "name" : "Object_6",
            "primitives" : [
                {
                    "attributes" : {
                        "POSITION" : 13,
                        "NORMAL" : 14,
                        "TEXCOORD_0" : 15
                    },
                    "indices" : 16,
                    "material" : 1
                }
            ]
        },
        {
            "name" : "Object_7",
            "primitives" : [
                {
                    "attributes" : {
                        "POSITION" : 17,
                        "NORMAL" : 18,
                        "TEXCOORD_0" : 19
                    },
                    "indices" : 20,
                    "material" : 2
                }
            ]
        },
        {
            "name" : "Object_0",
            "primitives" : [
                {
                    "attributes" : {
                        "POSITION" : 21,
                        "NORMAL" : 22,
                        "TEXCOORD_0" : 23
                    },
                    "indices" : 24,
                    "material" : 3
                }
            ]
        },
        {
            "name" : "Object_1",
            "primitives" : [
                {
                    "attributes" : {
                        "POSITION" : 25,
                        "NORMAL" : 26,
                        "TEXCOORD_0" : 27
                    },
                    "indices" : 28,
                    "material" : 4
                }
            ]
        }
    ],
    "accessors" : [
        {
            "bufferView" : 0,
            "componentType" : 5126,
            "count" : 57,
            "max" : [
                0.9749279022216797,
                1,
                0.9009688496589661
            ],
            "min" : [
                -0.9749279022216797,
                -1,
                -1
            ],
            "type" : "VEC3"
        },
        {
            "bufferView" : 1,
            "componentType" : 5126,
            "count" : 57,
            "type" : "VEC3"
        },
        {
            "bufferView" : 2,
            "componentType" : 5126,
            "count" : 57,
            "type" : "VEC2"
        },
        {
            "bufferView" : 3,
            "componentType" : 5123,
            "count" : 72,
            "type" : "SCALAR"
        },
        {
            "bufferView" : 4,
            "componentType" : 5126,
            "count" : 57,
            "max" : [
                0.9749279022216797,
                1,
                0.9009688496589661
            ],
            "min" : [
                -0.9749279022216797,
                -1,
                -1
            ],
            "type" : "VEC3"
        },
        {
            "bufferView" : 5,
            "componentType" : 5126,
            "count" : 57,
            "type" : "VEC3"
        },
        {
            "bufferView" : 6,
            "componentType" : 5126,
            "count" : 57,
            "type" : "VEC2"
        },
        {
            "bufferView" : 7,
            "componentType" : 5126,
            "count" : 57,
            "max" : [
                0.9749279022216797,
                1,
                0.9009688496589661
            ],
            "min" : [
                -0.9749279022216797,
                -1,
                -1
            ],
            "type" : "VEC3"
        },
        {
            "bufferView" : 8,
            "componentType" : 5126,
            "count" : 57,
            "type" : "VEC3"
        },
        {
            "bufferView" : 9,
            "componentType" : 5126,
            "count" : 57,
            "type" : "VEC2"
        },
        {
            "bufferView" : 10,
            "componentType" : 5126,
            "count" : 57,
            "max" : [
                0.9749279022216797,
                1,
                0.9009688496589661
            ],
            "min" : [
                -0.9749279022216797,
                -1,
                -1
            ],
            "type" : "VEC3"
        },
        {
            "bufferView" : 11,
            "componentType" : 5126,
            "count" : 57,
            "type" : "VEC3"
        },
        {
            "bufferView" : 12,
            "componentType" : 5126,
            "count" : 57,
            "type" : "VEC2"
        },
        {
            "bufferView" : 13,
            "componentType" : 5126,
            "count" : 300,
            "max" : [
                0.7890503406524658,
                0.934703528881073,
                0.9111167788505554
            ],
            "min" : [
                -0.7890503406524658,
                -0.9216415882110596,
                -0.9111167788505554
            ],
            "type" : "VEC3"
        },
        {
            "bufferView" : 14,
            "componentType" : 5126,
            "count" : 300,
            "type" : "VEC3"
        },
        {
            "bufferView" : 15,
            "componentType" : 5126,
            "count" : 300,
            "type" : "VEC2"
        },
        {
            "bufferView" : 16,
            "componentType" : 5123,
            "count" : 312,
            "type" : "SCALAR"
        },
        {
            "bufferView" : 17,
            "componentType" : 5126,
            "count" : 396,
            "max" : [
                0.866025447845459,
                1,
                1
            ],
            "min" : [
                -0.866025447845459,
                -1,
                -1
            ],
            "type" : "VEC3"
        },
        {
            "bufferView" : 18,
            "componentType" : 5126,
            "count" : 396,
            "type" : "VEC3"
        },
        {
            "bufferView" : 19,
            "componentType" : 5126,
            "count" : 396,
            "type" : "VEC2"
        },
        {
            "bufferView" : 20,
            "componentType" : 5123,
            "count" : 396,
            "type" : "SCALAR"
        },
        {
            "bufferView" : 21,
            "componentType" : 5126,
            "count" : 3407,
            "max" : [
                1,
                0.35829958319664,
                1
            ],
            "min" : [
                -1,
                0,
                -1
            ],
            "type" : "VEC3"
        },
        {
            "bufferView" : 22,
            "componentType" : 5126,
            "count" : 3407,
            "type" : "VEC3"
        },
        {
            "bufferView" : 23,
            "componentType" : 5126,
            "count" : 3407,
            "type" : "VEC2"
        },
        {
            "bufferView" : 24,
            "componentType" : 5123,
            "count" : 7266,
            "type" : "SCALAR"
        },
        {
            "bufferView" : 25,
            "componentType" : 5126,
            "count" : 455,
            "max" : [
                0.8181818127632141,
                0.35829958319664,
                0.8787878751754761
            ],
            "min" : [
                -0.8181818127632141,
                0,
                -0.939393937587738
            ],
            "type" : "VEC3"
        },
        {
            "bufferView" : 26,
            "componentType" : 5126,
            "count" : 455,
            "type" : "VEC3"
        },
        {
            "bufferView" : 27,
            "componentType" : 5126,
            "count" : 455,
            "type" : "VEC2"
        },
        {
            "bufferView" : 28,
            "componentType" : 5123,
            "count" : 612,
            "type" : "SCALAR"
        }
    ],
    "bufferViews" : [
        {
            "buffer" : 0,
            "byteLength" : 684,
            "byteOffset" : 0
        },
        {
            "buffer" : 0,
            "byteLength" : 684,
            "byteOffset" : 684
        },
        {
            "buffer" : 0,
            "byteLength" : 456,
            "byteOffset" : 1368
        },
        {
            "buffer" : 0,
            "byteLength" : 144,
            "byteOffset" : 1824
        },
        {
            "buffer" : 0,
            "byteLength" : 684,
            "byteOffset" : 1968
        },
        {
            "buffer" : 0,
            "byteLength" : 684,
            "byteOffset" : 2652
        },
        {
            "buffer" : 0,
            "byteLength" : 456,
            "byteOffset" : 3336
        },
        {
            "buffer" : 0,
            "byteLength" : 684,
            "byteOffset" : 3792
        },
        {
            "buffer" : 0,
            "byteLength" : 684,
            "byteOffset" : 4476
        },
        {
            "buffer" : 0,
            "byteLength" : 456,
            "byteOffset" : 5160
        },
        {
            "buffer" : 0,
            "byteLength" : 684,
            "byteOffset" : 5616
        },
        {
            "buffer" : 0,
            "byteLength" : 684,
            "byteOffset" : 6300
        },
        {
            "buffer" : 0,
            "byteLength" : 456,
            "byteOffset" : 6984
        },
        {
            "buffer" : 0,
            "byteLength" : 3600,
            "byteOffset" : 7440
        },
        {
            "buffer" : 0,
            "byteLength" : 3600,
            "byteOffset" : 11040
        },
        {
            "buffer" : 0,
            "byteLength" : 2400,
            "byteOffset" : 14640
        },
        {
            "buffer" : 0,
            "byteLength" : 624,
            "byteOffset" : 17040
        },
        {
            "buffer" : 0,
            "byteLength" : 4752,
            "byteOffset" : 17664
        },
        {
            "buffer" : 0,
            "byteLength" : 4752,
            "byteOffset" : 22416
        },
        {
            "buffer" : 0,
            "byteLength" : 3168,
            "byteOffset" : 27168
        },
        {
            "buffer" : 0,
            "byteLength" : 792,
            "byteOffset" : 30336
        },
        {
            "buffer" : 0,
            "byteLength" : 40884,
            "byteOffset" : 31128
        },
        {
            "buffer" : 0,
            "byteLength" : 40884,
            "byteOffset" : 72012
        },
        {
            "buffer" : 0,
            "byteLength" : 27256,
            "byteOffset" : 112896
        },
        {
            "buffer" : 0,
            "byteLength" : 14532,
            "byteOffset" : 140152
        },
        {
            "buffer" : 0,
            "byteLength" : 5460,
            "byteOffset" : 154684
        },
        {
            "buffer" : 0,
            "byteLength" : 5460,
            "byteOffset" : 160144
        },
        {
            "buffer" : 0,
            "byteLength" : 3640,
            "byteOffset" : 165604
        },
        {
            "buffer" : 0,
            "byteLength" : 1224,
            "byteOffset" : 169244
        }
    ],
    "buffers" : [
        {
            "byteLength" : 170468,
            "uri" : "data:application/octet-stream;base64,"
        }
    ]
}
